{"title":"Inside.Llewyn.Davis.2013.BRRip.720p.x264.AAC-PRiSTiNE [P2PDL]","uid":9673972,"size":704320887,"categoryP":"video","categoryS":"movies","magnet":"?xt=urn:btih:1ab9728abe326fd7710c131789e6a85fe60e906b&amp;dn=Inside.Llewyn.Davis.2013.BRRip.720p.x264.AAC-PRiSTiNE+%5BP2PDL%5D&amp;tr=udp%3A%2F%2Ftracker.openbittorrent.com%3A80&amp;tr=udp%3A%2F%2Fopen.demonii.com%3A1337&amp;tr=udp%3A%2F%2Ftracker.coppersurfer.tk%3A6969&amp;tr=udp%3A%2F%2Fexodus.desync.com%3A6969","seeders":1,"leechers":0,"uploader":"ValidusVyto","files":-1,"time":1393524055,"description":"Inside.Llewyn.Davis.2013.BRRip.720p.x264.AAC-PRiSTiNE\n\n\nGenre: Drama | Music &lt;a href=&quot;\nhttp://www.imdb.com/title/tt2042568/&quot; rel=&quot;nofollow&quot; target=&quot;_NEW&quot;&gt;\nhttp://www.imdb.com/title/tt2042568/&lt;/a&gt;\n\n\nFormat                                   : MPEG-4\nFile size                                : 662 MiB\nDuration                                 : 1h 44mn\nOverall bit rate mode                    : Variable\nOverall bit rate                         : 885 Kbps\n\nVideo\nFormat                                   : AVC\nFormat profile                           : &lt;a class=&quot;__cf_email__&quot; href=&quot;/cdn-cgi/l/email-protection&quot; data-cfemail=&quot;1d55747a755d5129332c&quot;&gt;[email&amp;#160;protected]&lt;/a&gt;&lt;script cf-hash='f9e31' type=&quot;text/javascript&quot;&gt;\n/* &lt;![CDATA[ */!function(){try{var t=&quot;currentScript&quot;in document?document.currentScript:function(){for(var t=document.getElementsByTagName(&quot;script&quot;),e=t.length;e--;)if(t[e].getAttribute(&quot;cf-hash&quot;))return t[e]}();if(t&amp;&amp;t.previousSibling){var e,r,n,i,c=t.previousSibling,a=c.getAttribute(&quot;data-cfemail&quot;);if(a){for(e=&quot;&quot;,r=parseInt(a.substr(0,2),16),n=2;a.length-n;n+=2)i=parseInt(a.substr(n,2),16)^r,e+=String.fromCharCode(i);e=document.createTextNode(e),c.parentNode.replaceChild(e,c)}}}catch(u){}}();/* ]]&gt; */&lt;/script&gt;\nBit rate                                 : 800 Kbps\nWidth                                    : 1 280 pixels\nHeight                                   : 688 pixels\nDisplay aspect ratio                     : 16:9\nFrame rate mode                          : Variable\nFrame rate                               : 23.976 fps\nBit depth                                : 8 bits\nStream size                              : 598 MiB (90%)\nWriting library                          : x264 core 142 r2389 956c8d8\n\nAudio\nFormat                                   : AAC\nBit rate mode                            : Variable\nBit rate                                 : 80.0 Kbps\nChannel(s)                               : 2 channels\nChannel positions                        : Front: L R\nSampling rate                            : 48.0 KHz\nStream size                              : 59.8 MiB (9%)\nLanguage                                 : English\n\n\nSubtitle                                 : Yes (English)\n &lt;a href=&quot;\nhttp://someimage.com/TIMUL74&quot; rel=&quot;nofollow&quot; target=&quot;_NEW&quot;&gt;\nhttp://someimage.com/TIMUL74&lt;/a&gt; &lt;a href=&quot;\nhttp://someimage.com/Pno1Qav&quot; rel=&quot;nofollow&quot; target=&quot;_NEW&quot;&gt;\nhttp://someimage.com/Pno1Qav&lt;/a&gt; &lt;a href=&quot;\nhttp://someimage.com/DTk3QAm&quot; rel=&quot;nofollow&quot; target=&quot;_NEW&quot;&gt;\nhttp://someimage.com/DTk3QAm&lt;/a&gt; &lt;a href=&quot;\nhttp://someimage.com/aDMAmCH&quot; rel=&quot;nofollow&quot; target=&quot;_NEW&quot;&gt;\nhttp://someimage.com/aDMAmCH&lt;/a&gt; &lt;a href=&quot;\nhttp://someimage.com/9Hnt8aR&quot; rel=&quot;nofollow&quot; target=&quot;_NEW&quot;&gt;\nhttp://someimage.com/9Hnt8aR&lt;/a&gt; &lt;a href=&quot;\nhttp://someimage.com/VpV3Aum&quot; rel=&quot;nofollow&quot; target=&quot;_NEW&quot;&gt;\nhttp://someimage.com/VpV3Aum&lt;/a&gt; &lt;a href=&quot;\nhttp://someimage.com/y9qDxm8&quot; rel=&quot;nofollow&quot; target=&quot;_NEW&quot;&gt;\nhttp://someimage.com/y9qDxm8&lt;/a&gt; &lt;a href=&quot;\nhttp://someimage.com/2qCfXT7&quot; rel=&quot;nofollow&quot; target=&quot;_NEW&quot;&gt;\nhttp://someimage.com/2qCfXT7&lt;/a&gt;\n\nFind us at P2PDL torrent community!","torrent":{"xt":"urn:btih:1ab9728abe326fd7710c131789e6a85fe60e906b","amp;dn":"Inside.Llewyn.Davis.2013.BRRip.720p.x264.AAC-PRiSTiNE+%5BP2PDL%5D","amp;tr":["udp%3A%2F%2Ftracker.openbittorrent.com%3A80","udp%3A%2F%2Fopen.demonii.com%3A1337","udp%3A%2F%2Ftracker.coppersurfer.tk%3A6969","udp%3A%2F%2Fexodus.desync.com%3A6969"],"infoHash":"1ab9728abe326fd7710c131789e6a85fe60e906b","infoHashBuffer":{"type":"Buffer","data":[26,185,114,138,190,50,111,215,113,12,19,23,137,230,168,95,230,14,144,107]},"announce":[],"urlList":[]}}